<svg width="166" height="35" viewBox="0 0 166 35" fill="none" xmlns="http://www.w3.org/2000/svg">
<path d="M28.788 26H25.8V0.799998H28.788V12.392H40.488V0.799998H43.476V26H40.488V12.752H28.788V26ZM55.2415 26.144C52.7215 26.144 50.6695 25.424 49.0855 23.984C47.5015 22.544 46.7095 20.324 46.7095 17.324C46.7095 14.324 47.5255 11.996 49.1575 10.34C50.8135 8.684 52.9015 7.856 55.4215 7.856C57.9655 7.856 60.0295 8.576 61.6135 10.016C63.1975 11.456 63.9895 13.676 63.9895 16.676C63.9895 19.676 63.1615 22.004 61.5055 23.66C59.8735 25.316 57.7855 26.144 55.2415 26.144ZM55.4935 8.144C53.6695 8.144 52.1575 8.96 50.9575 10.592C49.7575 12.2 49.1575 14.456 49.1575 17.36C49.1575 20.24 49.7095 22.376 50.8135 23.768C51.9175 25.16 53.3815 25.856 55.2055 25.856C57.0295 25.856 58.5415 25.052 59.7415 23.444C60.9415 21.812 61.5415 19.556 61.5415 16.676C61.5415 13.772 60.9895 11.624 59.8855 10.232C58.7815 8.84 57.3175 8.144 55.4935 8.144ZM76.6629 9.26C76.2789 8.948 75.6549 8.684 74.7909 8.468C73.9509 8.252 73.3149 8.144 72.8829 8.144C72.4509 8.144 72.1989 8.144 72.1269 8.144C70.8309 8.168 69.8949 8.504 69.3189 9.152C68.7429 9.776 68.4549 10.484 68.4549 11.276C68.4549 12.068 68.7069 12.74 69.2109 13.292C69.7149 13.82 70.3389 14.24 71.0829 14.552C71.8509 14.84 72.6669 15.176 73.5309 15.56C74.4189 15.944 75.2349 16.34 75.9789 16.748C76.7469 17.132 77.3829 17.708 77.8869 18.476C78.3909 19.22 78.6429 20.156 78.6429 21.284C78.6429 22.412 78.2469 23.372 77.4549 24.164C76.6629 24.956 75.7749 25.484 74.7909 25.748C73.8309 26.012 72.7869 26.144 71.6589 26.144C69.2109 26.144 67.3749 25.604 66.1509 24.524L66.3669 24.308C66.8469 24.764 67.5549 25.136 68.4909 25.424C69.4509 25.712 70.3749 25.856 71.2629 25.856C72.6789 25.856 73.8429 25.472 74.7549 24.704C75.6909 23.912 76.1589 22.94 76.1589 21.788C76.1589 20.612 75.8109 19.676 75.1149 18.98C74.4189 18.26 73.5669 17.708 72.5589 17.324C71.5749 16.916 70.5789 16.52 69.5709 16.136C68.5629 15.728 67.7109 15.176 67.0149 14.48C66.3189 13.76 65.9709 12.932 65.9709 11.996C65.9709 11.06 66.1869 10.304 66.6189 9.728C67.0509 9.128 67.6269 8.708 68.3469 8.468C69.5709 8.06 70.7949 7.856 72.0189 7.856C74.0829 7.856 75.6909 8.24 76.8429 9.008L76.6629 9.26ZM80.9953 8H83.5153V12.464C83.9233 11.36 84.6793 10.316 85.7833 9.332C86.8873 8.348 88.1353 7.856 89.5273 7.856C94.3993 7.856 96.8353 10.712 96.8353 16.424C96.8353 22.904 93.6913 26.144 87.4033 26.144C86.2753 26.144 84.9793 25.88 83.5153 25.352V35H80.9953V8ZM89.4913 8.144C88.0033 8.144 86.6593 8.792 85.4593 10.088C84.2593 11.36 83.6113 12.512 83.5153 13.544V25.028C84.9793 25.58 86.2633 25.856 87.3673 25.856C91.9993 25.856 94.3153 22.7 94.3153 16.388C94.3153 10.892 92.7073 8.144 89.4913 8.144ZM103.397 26C102.413 26 101.657 25.784 101.129 25.352C100.625 24.92 100.361 24.488 100.337 24.056L100.301 23.444V8H102.821V23.444C102.821 24.14 102.953 24.68 103.217 25.064C103.505 25.424 103.781 25.616 104.045 25.64L104.477 25.712H105.593V26H103.397ZM100.517 3.968C100.229 3.68 100.085 3.32 100.085 2.888C100.085 2.456 100.229 2.096 100.517 1.808C100.805 1.496 101.165 1.34 101.597 1.34C102.029 1.34 102.389 1.496 102.677 1.808C102.989 2.096 103.145 2.456 103.145 2.888C103.145 3.32 102.989 3.68 102.677 3.968C102.389 4.256 102.029 4.4 101.597 4.4C101.165 4.4 100.805 4.256 100.517 3.968ZM108.551 26H108.119L118.883 0.799998L119.279 0.619998L128.351 26H125.291L122.483 18.08H111.971L108.551 26ZM117.767 4.688L112.115 17.72H122.375L117.767 4.688ZM130.882 8H133.402V12.464C133.81 11.36 134.566 10.316 135.67 9.332C136.774 8.348 138.022 7.856 139.414 7.856C144.286 7.856 146.722 10.712 146.722 16.424C146.722 22.904 143.578 26.144 137.29 26.144C136.162 26.144 134.866 25.88 133.402 25.352V35H130.882V8ZM139.378 8.144C137.89 8.144 136.546 8.792 135.346 10.088C134.146 11.36 133.498 12.512 133.402 13.544V25.028C134.866 25.58 136.15 25.856 137.254 25.856C141.886 25.856 144.202 22.7 144.202 16.388C144.202 10.892 142.594 8.144 139.378 8.144ZM149.972 8H152.492V12.464C152.9 11.36 153.656 10.316 154.76 9.332C155.864 8.348 157.112 7.856 158.504 7.856C163.376 7.856 165.812 10.712 165.812 16.424C165.812 22.904 162.668 26.144 156.38 26.144C155.252 26.144 153.956 25.88 152.492 25.352V35H149.972V8ZM158.468 8.144C156.98 8.144 155.636 8.792 154.436 10.088C153.236 11.36 152.588 12.512 152.492 13.544V25.028C153.956 25.58 155.24 25.856 156.344 25.856C160.976 25.856 163.292 22.7 163.292 16.388C163.292 10.892 161.684 8.144 158.468 8.144Z" fill="white"/>
<path fill-rule="evenodd" clip-rule="evenodd" d="M19.7778 10H16V6.22222C16 4.99492 15.186 4 14.1818 4H9.81818C8.81403 4 8 4.99492 8 6.22222V10H4.22222C2.99492 10 2 10.814 2 11.8182V16.1818C2 17.186 2.99492 18 4.22222 18H8V21.7778C8 23.0051 8.81403 24 9.81818 24H14.1818C15.186 24 16 23.0051 16 21.7778V18H19.7778C21.0051 18 22 17.186 22 16.1818V11.8182C22 10.814 21.0051 10 19.7778 10ZM20 12H14V6H10V12H4V16H10V22H14V16H20V12Z" fill="white"/>
</svg>
